<?xml version="1.0" encoding="utf-8"?>
<!-- Generator: Adobe Illustrator 16.0.0, SVG Export Plug-In . SVG Version: 6.00 Build 0)  -->
<!DOCTYPE svg PUBLIC "-//W3C//DTD SVG 1.1//EN" "http://www.w3.org/Graphics/SVG/1.1/DTD/svg11.dtd">
<svg version="1.1" id="Layer_1" xmlns="http://www.w3.org/2000/svg" xmlns:xlink="http://www.w3.org/1999/xlink" x="0px" y="0px"
	 width="144px" height="96px" viewBox="0 0 144 96" enable-background="new 0 0 144 96" xml:space="preserve">
<g id="budicon-discount-coupon">
	<path fill="#E8E5FE" d="M55.397,81.203c28.462,0,71.151-56.92,71.151-66.408v66.408H55.397z"/>
	<path fill="#8075F2" d="M126.549,10.053H17.452c-2.619,0-4.743,2.124-4.743,4.743v14.231c10.479,0,18.974,8.494,18.974,18.974
		c0,10.478-8.495,18.972-18.974,18.972v14.231c0,2.619,2.124,4.743,4.743,4.743h109.097c2.619,0,4.743-2.124,4.743-4.743V14.795
		C131.292,12.177,129.168,10.053,126.549,10.053z M126.549,81.203H50.655V76.46h-4.743v4.743h-28.46v-9.965
		C28.486,68.97,36.411,59.264,36.425,48c-0.014-11.266-7.939-20.974-18.974-23.244v-9.961h28.46v4.743h4.743v-4.743h75.894V81.203z"
		/>
	<path fill="#8075F2" d="M74.371,43.256c5.239,0,9.488-4.248,9.488-9.487c0-5.239-4.249-9.486-9.488-9.486l0,0
		c-5.238,0-9.485,4.247-9.485,9.486C64.886,39.008,69.133,43.256,74.371,43.256z M74.371,29.026c2.621,0,4.744,2.124,4.744,4.743
		s-2.123,4.743-4.744,4.743c-2.619,0-4.743-2.124-4.743-4.743C69.631,31.151,71.754,29.029,74.371,29.026z"/>
	<path fill="#8075F2" d="M102.832,52.742c-5.239,0-9.487,4.246-9.487,9.486c0,5.239,4.248,9.487,9.487,9.487
		c5.24,0,9.486-4.248,9.486-9.487C112.318,56.988,108.072,52.742,102.832,52.742z M102.832,66.972c-2.621,0-4.742-2.123-4.742-4.743
		c0-2.618,2.121-4.743,4.742-4.743c2.618,0,4.743,2.125,4.743,4.743C107.571,64.848,105.45,66.97,102.832,66.972z"/>
	
		<rect x="61.217" y="45.624" transform="matrix(-0.6501 0.7599 -0.7599 -0.6501 185.6429 10.5023)" fill="#8075F2" width="58.373" height="4.743"/>
	<rect x="45.912" y="29.026" fill="#8075F2" width="4.743" height="14.229"/>
	<rect x="45.912" y="52.742" fill="#8075F2" width="4.743" height="14.229"/>
</g>
</svg>
