<?xml version="1.0" encoding="utf-8"?>
<!-- Generator: Adobe Illustrator 16.0.0, SVG Export Plug-In . SVG Version: 6.00 Build 0)  -->
<!DOCTYPE svg PUBLIC "-//W3C//DTD SVG 1.1//EN" "http://www.w3.org/Graphics/SVG/1.1/DTD/svg11.dtd">
<svg version="1.1" id="Layer_1" xmlns="http://www.w3.org/2000/svg" xmlns:xlink="http://www.w3.org/1999/xlink" x="0px" y="0px"
	 width="200px" height="200px" viewBox="0 0 200 200" enable-background="new 0 0 200 200" xml:space="preserve">
<g id="budicon-ufo">
	<path fill="#E8E5FE" d="M140.381,167.399h24.327c-0.655-34.935-29.507-62.723-64.44-62.067c-3.712,0.069-7.41,0.466-11.052,1.184
		C118.469,112.249,139.77,137.597,140.381,167.399z"/>
	<path fill="#8075F2" d="M100,102.695c-10.229-0.003-20.342,2.183-29.656,6.41V86.521h43.136v2.695c0,1.489,1.207,2.696,2.696,2.696
		h37.743c1.489,0,2.696-1.207,2.696-2.696V40.688c0-1.488-1.207-2.695-2.696-2.695h-35.048v-2.696c0-1.489-1.207-2.696-2.695-2.696
		H67.648c-1.489,0-2.696,1.207-2.696,2.696v76.543c-19.58,10.442-31.964,30.676-32.352,52.863c0,1.489,1.207,2.696,2.696,2.696
		c1.488,0,2.695-1.207,2.695-2.696c0.308-19.17,10.506-36.818,26.96-46.658v19.699c0,1.488,1.207,2.695,2.696,2.695
		c1.488,0,2.695-1.207,2.695-2.695V115c9.215-4.574,19.368-6.94,29.656-6.912c34.191,0,62.007,25.396,62.007,56.615
		c0,1.489,1.207,2.696,2.696,2.696c1.488,0,2.695-1.207,2.695-2.696C167.398,130.512,137.164,102.695,100,102.695z M151.223,43.385
		v43.136h-32.352V43.385H151.223z M113.479,40.688v40.439H70.344V37.993h43.136V40.688z"/>
	<path fill="#8075F2" d="M100,118.872c-1.489,0-2.696,1.207-2.696,2.695c0,1.489,1.207,2.696,2.696,2.696
		c15.799-0.259,30.688,7.371,39.705,20.346c0.786,1.265,2.449,1.652,3.713,0.865c1.265-0.786,1.652-2.449,0.865-3.713
		c-0.021-0.034-0.043-0.067-0.066-0.101C134.199,127.168,117.616,118.621,100,118.872z"/>
	<path fill="#8075F2" d="M91.912,140.439c-5.956,0-10.784,4.828-10.784,10.784c0,5.955,4.828,10.783,10.784,10.783
		s10.783-4.828,10.783-10.783C102.695,145.268,97.868,140.439,91.912,140.439z M91.912,156.615c-2.979,0-5.393-2.414-5.393-5.392
		c0-2.979,2.414-5.392,5.393-5.392c2.978,0,5.392,2.413,5.392,5.392C97.301,154.2,94.889,156.611,91.912,156.615z"/>
	<circle fill="#8075F2" cx="148.527" cy="153.919" r="2.696"/>
	<polygon fill="#E8E5FE" points="135.047,86.521 118.871,86.521 118.871,43.385 124.264,43.385 	"/>
	<polygon fill="#E8E5FE" points="81.128,81.128 70.344,81.128 70.344,37.993 75.736,37.993 	"/>
</g>
</svg>
