<?xml version="1.0" encoding="utf-8"?>
<!-- Generator: Adobe Illustrator 16.0.0, SVG Export Plug-In . SVG Version: 6.00 Build 0)  -->
<!DOCTYPE svg PUBLIC "-//W3C//DTD SVG 1.1//EN" "http://www.w3.org/Graphics/SVG/1.1/DTD/svg11.dtd">
<svg version="1.1" id="Layer_1" xmlns="http://www.w3.org/2000/svg" xmlns:xlink="http://www.w3.org/1999/xlink" x="0px" y="0px"
	 width="993px" height="243.322px" viewBox="0 0 993 243.322" enable-background="new 0 0 993 243.322" xml:space="preserve">
<path opacity="0.3" fill="#FFFFFF" enable-background="new    " d="M120.488,1C53.849,1-0.172,55.023-0.172,121.661
	c0,66.639,54.021,120.661,120.66,120.661c66.639,0,120.66-54.022,120.66-120.661C241.148,55.023,187.126,1,120.488,1z
	 M120.497,160.354c0,0-41.475-26.338-41.475-45.629c0-19.289,27.005-35.687,41.475-13.504c14.467-22.183,41.474-5.785,41.474,13.504
	C161.971,134.015,120.497,160.354,120.497,160.354z"/>
<path opacity="0.3" fill="#FFFFFF" enable-background="new    " d="M120.488,22.154c-54.956,0-99.505,44.55-99.505,99.507
	c0,54.954,44.55,99.504,99.505,99.504c54.956,0,99.507-44.55,99.507-99.504C219.995,66.704,175.444,22.154,120.488,22.154z
	 M120.508,160.353c0,0-41.475-26.338-41.475-45.628c0-19.289,27.006-35.688,41.475-13.504c14.467-22.184,41.474-5.785,41.474,13.504
	C161.981,134.015,120.508,160.353,120.508,160.353z"/>
<path fill="#FFFFFF" d="M120.488,43.104c-43.387,0-78.556,35.17-78.556,78.558c0,43.386,35.169,78.558,78.556,78.558
	c43.386,0,78.555-35.172,78.555-78.558C199.043,78.273,163.874,43.104,120.488,43.104z M120.508,160.353
	c0,0-41.475-26.338-41.475-45.628c0-19.289,27.006-35.688,41.475-13.504c14.467-22.184,41.474-5.785,41.474,13.504
	C161.981,134.015,120.508,160.353,120.508,160.353z"/>
<g>
	<path fill="#FFFFFF" d="M313.813,167.377c-6.406,0-12.673-1.044-18.801-3.133c-6.128-2.089-11.328-5.129-15.598-9.122l9.052-15.876
		c4.548,3.063,8.935,5.431,13.161,7.103c4.224,1.672,8.099,2.508,11.628,2.508c3.712,0,5.571-1.16,5.571-3.482
		c0-1.299-0.72-2.413-2.159-3.342c-1.44-0.928-4.248-1.996-8.426-3.203c-5.201-1.484-9.54-2.946-13.021-4.387
		c-3.482-1.438-6.315-2.994-8.495-4.666c-2.183-1.672-3.739-3.527-4.666-5.571c-0.929-2.041-1.393-4.456-1.393-7.242
		c0-3.712,0.742-7.148,2.228-10.306c1.484-3.155,3.551-5.895,6.197-8.216c2.646-2.32,5.801-4.108,9.47-5.362
		c3.667-1.253,7.681-1.88,12.046-1.88c5.383,0,10.515,0.697,15.389,2.089c4.875,1.393,9.771,4.226,14.693,8.495l-10.027,15.876
		c-4.55-2.97-8.356-5.083-11.42-6.336c-3.063-1.253-5.942-1.88-8.634-1.88c-1.58,0-2.879,0.302-3.899,0.905
		c-1.022,0.604-1.532,1.556-1.532,2.854c0,1.393,0.742,2.531,2.228,3.412c1.484,0.884,4.409,1.88,8.774,2.994
		c5.292,1.393,9.749,2.855,13.369,4.387c3.621,1.531,6.521,3.203,8.704,5.013c2.181,1.812,3.736,3.854,4.666,6.128
		c0.927,2.276,1.393,4.898,1.393,7.868c0,3.808-0.696,7.196-2.089,10.167c-1.393,2.973-3.412,5.525-6.058,7.66
		c-2.646,2.137-5.849,3.76-9.609,4.875C322.795,166.819,318.548,167.377,313.813,167.377z"/>
	<path fill="#FFFFFF" d="M403.917,161.946c-3.714,1.58-7.684,2.902-11.907,3.969c-4.226,1.066-8.38,1.602-12.464,1.602
		c-2.972,0-5.803-0.371-8.495-1.113c-2.694-0.742-5.038-1.95-7.033-3.621c-1.998-1.672-3.575-3.852-4.735-6.545
		c-1.162-2.692-1.741-6.034-1.741-10.027v-33.562h-9.052V92.731h9.052V69.752h26.46v22.979h14.344v19.915h-14.344v24.232
		c0,2.416,0.509,4.107,1.532,5.083c1.021,0.976,2.414,1.462,4.178,1.462c1.299,0,2.785-0.209,4.457-0.626
		c1.671-0.418,3.342-0.997,5.013-1.741L403.917,161.946z"/>
	<path fill="#FFFFFF" d="M446.67,167.377c-6.593,0-12.373-1.044-17.338-3.133c-4.968-2.089-9.146-4.875-12.534-8.356
		c-3.39-3.48-5.941-7.521-7.659-12.115c-1.719-4.597-2.576-9.4-2.576-14.414s0.856-9.818,2.576-14.415
		c1.718-4.596,4.27-8.635,7.659-12.116c3.388-3.481,7.566-6.267,12.534-8.356c4.965-2.089,10.745-3.133,17.338-3.133
		c6.498,0,12.255,1.044,17.27,3.133c5.014,2.089,9.213,4.875,12.604,8.356c3.388,3.481,5.94,7.521,7.66,12.116
		c1.717,4.596,2.576,9.4,2.576,14.415c0,5.014-0.859,9.817-2.576,14.414c-1.719,4.596-4.272,8.635-7.66,12.115
		c-3.39,3.481-7.59,6.268-12.604,8.356C458.925,166.333,453.168,167.377,446.67,167.377z M433.719,129.356
		c0,4.922,1.206,8.774,3.621,11.56c2.413,2.786,5.522,4.178,9.331,4.178c3.806,0,6.916-1.393,9.331-4.178
		c2.414-2.785,3.621-6.638,3.621-11.56c0-4.92-1.208-8.772-3.621-11.559c-2.415-2.786-5.525-4.178-9.331-4.178
		c-3.808,0-6.917,1.393-9.331,4.178C434.924,120.584,433.719,124.438,433.719,129.356z"/>
	<path fill="#FFFFFF" d="M545.826,115.292c-5.107,0-9.748,0.557-13.926,1.671c-4.179,1.114-7.289,2.973-9.33,5.571v43.451h-26.461
		V92.731h24.231v13.926c2.599-4.92,5.824-8.704,9.678-11.35c3.853-2.646,8.009-3.969,12.466-3.969c1.762,0,2.877,0.048,3.342,0.139
		V115.292L545.826,115.292z"/>
	<path fill="#FFFFFF" d="M672.138,165.983h-26.46v-41.223c0-3.621-0.721-6.243-2.158-7.868c-1.44-1.624-3.182-2.438-5.223-2.438
		c-2.137,0-4.387,0.975-6.755,2.925c-2.367,1.95-4.108,4.457-5.222,7.521v41.082h-26.461v-41.223c0-3.621-0.721-6.243-2.158-7.868
		c-1.44-1.624-3.183-2.438-5.224-2.438c-2.137,0-4.387,0.975-6.755,2.925c-2.367,1.95-4.107,4.457-5.222,7.521v41.082H554.04V92.731
		h23.813v10.863c2.6-3.991,6.175-7.033,10.725-9.122c4.548-2.089,9.934-3.133,16.154-3.133c2.971,0,5.57,0.348,7.799,1.044
		c2.229,0.696,4.153,1.649,5.779,2.855c1.623,1.208,2.925,2.555,3.899,4.039c0.975,1.486,1.74,3.064,2.298,4.735
		c2.598-3.991,6.149-7.103,10.653-9.331c4.502-2.229,9.631-3.342,15.389-3.342c4.826,0,8.656,0.905,11.489,2.715
		c2.831,1.811,4.99,4.063,6.477,6.754c1.483,2.694,2.459,5.571,2.924,8.635c0.465,3.063,0.696,5.849,0.696,8.356v48.185H672.138z"/>
	<path fill="#FFFFFF" d="M708.865,165.983h-22.984V61.536h22.984V165.983z"/>
	<path fill="#FFFFFF" d="M723.233,86.603V64.321h22.983v22.282H723.233z M723.233,165.983V92.731h22.983v73.252H723.233z"/>
	<path fill="#FFFFFF" d="M807.911,165.983l-16.572-26.738l-5.292,5.849v20.89h-26.461V64.321h26.461v55.567l19.497-27.157h27.854
		l-25.207,32.032l27.714,41.223h-27.993V165.983z"/>
	<path fill="#FFFFFF" d="M873.088,167.377c-6.406,0-12.116-0.999-17.13-2.994s-9.216-4.711-12.604-8.147
		c-3.391-3.434-5.967-7.381-7.729-11.836c-1.765-4.457-2.646-9.145-2.646-14.066c0-5.292,0.856-10.306,2.576-15.041
		c1.717-4.735,4.271-8.865,7.659-12.395c3.389-3.527,7.566-6.337,12.534-8.426c4.966-2.089,10.745-3.133,17.339-3.133
		c6.497,0,12.255,1.044,17.269,3.133c5.015,2.089,9.214,4.875,12.604,8.356c3.388,3.481,5.94,7.521,7.659,12.116
		c1.717,4.596,2.577,9.4,2.577,14.414c0,1.394-0.07,2.811-0.209,4.248c-0.141,1.441-0.304,2.717-0.488,3.83H861.11
		c0.277,3.899,1.717,6.709,4.316,8.426c2.6,1.719,5.433,2.576,8.495,2.576c2.877,0,5.593-0.647,8.147-1.949
		c2.552-1.299,4.247-3.109,5.083-5.432l22.422,6.405c-2.974,5.849-7.545,10.632-13.719,14.345
		C889.682,165.521,882.092,167.377,873.088,167.377z M884.786,121.559c-0.466-3.527-1.767-6.312-3.899-8.356
		c-2.138-2.041-4.875-3.063-8.217-3.063c-3.343,0-6.082,1.022-8.217,3.063c-2.137,2.043-3.438,4.829-3.899,8.356H884.786z"/>
	<path fill="#FFFFFF" d="M952.05,167.377c-6.405,0-12.673-1.044-18.801-3.133s-11.328-5.129-15.598-9.122l9.052-15.876
		c4.548,3.063,8.936,5.431,13.161,7.103c4.224,1.672,8.099,2.508,11.629,2.508c3.712,0,5.569-1.16,5.569-3.482
		c0-1.299-0.721-2.413-2.158-3.342c-1.44-0.928-4.247-1.996-8.426-3.203c-5.2-1.484-9.539-2.946-13.021-4.387
		c-3.481-1.438-6.313-2.994-8.495-4.666c-2.183-1.672-3.738-3.527-4.666-5.571c-0.929-2.041-1.393-4.456-1.393-7.242
		c0-3.712,0.742-7.148,2.229-10.306c1.484-3.155,3.553-5.895,6.197-8.216c2.646-2.32,5.802-4.108,9.47-5.362
		c3.667-1.253,7.683-1.88,12.047-1.88c5.384,0,10.516,0.697,15.39,2.089c4.873,1.392,9.771,4.226,14.691,8.495l-10.025,15.876
		c-4.552-2.97-8.356-5.083-11.42-6.336c-3.064-1.253-5.943-1.88-8.636-1.88c-1.58,0-2.879,0.302-3.898,0.905
		c-1.022,0.604-1.532,1.556-1.532,2.854c0,1.393,0.742,2.531,2.229,3.412c1.484,0.884,4.408,1.88,8.773,2.994
		c5.292,1.393,9.749,2.855,13.37,4.387c3.62,1.531,6.521,3.203,8.704,5.013c2.18,1.812,3.736,3.854,4.665,6.128
		c0.927,2.276,1.393,4.898,1.393,7.868c0,3.808-0.696,7.196-2.089,10.167c-1.393,2.973-3.412,5.525-6.058,7.66
		c-2.646,2.137-5.851,3.76-9.609,4.875C961.032,166.819,956.785,167.377,952.05,167.377z"/>
</g>
</svg>
