<svg xmlns="http://www.w3.org/2000/svg" viewBox="0 0 25 25"><defs><style>.cls-1{fill:#e8e5fe;}.cls-2{fill:#8075f2;}</style></defs><title>location-pin</title><g id="budicon-location-pin"><path class="cls-1" d="M16.7056,2.2942A7.4563,7.4563,0,0,1,18,6.5c0,4.6416-4.7876,12.3167-7.1062,15.3064a.4253.4253,0,0,1-.14.106c.498.7373.9636,1.3865,1.3556,1.8936a.4935.4935,0,0,0,.7842,0C15.2122,20.8167,20,13.1416,20,8.5A7.4973,7.4973,0,0,0,16.7056,2.2942Z"/><path class="cls-2" d="M12.5,0A8.5,8.5,0,0,0,4,8.5c0,4.9768,4.9832,12.8967,7.3186,15.9175a1.4933,1.4933,0,0,0,2.3655.0017C16.02,21.4063,21,13.5068,21,8.5A8.5,8.5,0,0,0,12.5,0Zm.3938,23.8064a.4935.4935,0,0,1-.7842,0C9.79,20.8054,5,13.1162,5,8.5a7.5,7.5,0,0,1,15,0C20,13.1416,15.2122,20.8167,12.8936,23.8064Z"/><path class="cls-2" d="M12.5,4A3.5,3.5,0,1,0,16,7.5,3.5,3.5,0,0,0,12.5,4Zm0,6A2.5,2.5,0,1,1,15,7.5,2.5029,2.5029,0,0,1,12.5,10Z"/></g></svg>