<?xml version="1.0" encoding="utf-8"?>
<!-- Generator: Adobe Illustrator 17.0.0, SVG Export Plug-In . SVG Version: 6.00 Build 0)  -->
<!DOCTYPE svg PUBLIC "-//W3C//DTD SVG 1.1//EN" "http://www.w3.org/Graphics/SVG/1.1/DTD/svg11.dtd">
<svg version="1.1" id="Layer_1" xmlns="http://www.w3.org/2000/svg" xmlns:xlink="http://www.w3.org/1999/xlink" x="0px" y="0px"
	 width="144px" height="96px" viewBox="0 0 144 96" enable-background="new 0 0 144 96" xml:space="preserve">
<g id="budicon-user">
	<path fill="#E8E5FE" d="M72,4.395c-2.226,0.031-4.433,0.406-6.543,1.114C76.887,9.04,83.291,21.17,79.759,32.6
		c-2.112,6.837-7.465,12.19-14.302,14.302c2.11,0.707,4.318,1.083,6.543,1.114c12.046,0,21.811-9.765,21.811-21.811
		S84.046,4.395,72,4.395z"/>
	<path fill="#E8E5FE" d="M93.811,87.276V96h15.268v-8.724c0-19.273-15.624-34.897-34.897-34.897
		c-2.919,0.007-5.835,0.218-8.724,0.634C81.905,56.151,93.805,70.531,93.811,87.276z"/>
	<path fill="#8075F2" d="M83.429,49.725c13.004-6.312,18.429-21.971,12.117-34.975C89.234,1.746,73.575-3.679,60.571,2.633
		S42.142,24.604,48.454,37.608c2.565,5.284,6.833,9.552,12.117,12.117c-16.517,5.046-27.807,20.28-27.831,37.551v6.543
		c0,1.205,0.976,2.181,2.181,2.181s2.181-0.977,2.181-2.181v-6.543c0-19.273,15.624-34.897,34.897-34.897
		s34.897,15.624,34.897,34.897v6.543c0,1.205,0.977,2.181,2.181,2.181s2.181-0.977,2.181-2.181v-6.543
		C111.236,70.005,99.946,54.771,83.429,49.725z M50.189,26.206C50.189,14.16,59.954,4.395,72,4.395s21.811,9.765,21.811,21.811
		S84.046,48.016,72,48.016C59.96,48.003,50.203,38.246,50.189,26.206z"/>
</g>
</svg>
