<?xml version="1.0" encoding="utf-8"?>
<!-- Generator: Adobe Illustrator 16.0.0, SVG Export Plug-In . SVG Version: 6.00 Build 0)  -->
<!DOCTYPE svg PUBLIC "-//W3C//DTD SVG 1.1//EN" "http://www.w3.org/Graphics/SVG/1.1/DTD/svg11.dtd">
<svg version="1.1" id="Layer_1" xmlns="http://www.w3.org/2000/svg" xmlns:xlink="http://www.w3.org/1999/xlink" x="0px" y="0px"
	 width="200px" height="200px" viewBox="0 0 200 200" enable-background="new 0 0 200 200" xml:space="preserve">
<path fill="#EF445F" d="M134.162,93.798c-0.071,16.153-34.898,38.053-34.898,38.053S64.63,109.646,64.702,93.495
	C64.771,77.34,87.446,63.708,99.48,82.337C111.676,63.815,134.231,77.643,134.162,93.798z"/>
<g id="budicon-brightness-a_2_">
	<path fill="#8075F2" d="M61.429,65.965c1.259,1.248,3.29,1.239,4.538-0.02c1.24-1.251,1.24-3.268,0-4.518l-9.078-9.079
		c-1.27-1.236-3.301-1.211-4.538,0.057c-1.216,1.247-1.216,3.234,0,4.481L61.429,65.965z"/>
	<path fill="#8075F2" d="M138.57,134.035c-1.258-1.248-3.29-1.238-4.537,0.02c-1.24,1.25-1.241,3.268-0.001,4.518l9.076,9.078
		c1.237,1.27,3.269,1.295,4.538,0.059c1.268-1.238,1.295-3.27,0.057-4.537c-0.019-0.02-0.038-0.039-0.057-0.059L138.57,134.035z"/>
	<path fill="#8075F2" d="M138.57,65.965l9.076-9.078c1.27-1.237,1.295-3.27,0.058-4.538c-1.237-1.27-3.269-1.294-4.538-0.058
		c-0.02,0.02-0.038,0.038-0.057,0.058l-9.074,9.081c-1.247,1.259-1.238,3.29,0.021,4.537c1.251,1.239,3.267,1.239,4.518,0
		L138.57,65.965z"/>
	<path fill="#8075F2" d="M61.429,134.035l-9.078,9.078c-1.237,1.27-1.212,3.301,0.058,4.537c1.246,1.217,3.234,1.217,4.48,0
		l9.075-9.08c1.259-1.246,1.267-3.279,0.019-4.537s-3.279-1.266-4.537-0.018c-0.007,0.006-0.014,0.012-0.02,0.018L61.429,134.035z"
		/>
	<path fill="#8075F2" d="M100,51.868c1.771,0,3.209-1.438,3.209-3.209V22.987c0-1.772-1.438-3.209-3.209-3.209
		c-1.772,0-3.209,1.437-3.209,3.209v25.672C96.791,50.43,98.228,51.868,100,51.868z"/>
	<path fill="#8075F2" d="M100,148.133c-1.772,0-3.209,1.438-3.209,3.211v25.67c0,1.773,1.437,3.209,3.209,3.209
		c1.771,0,3.209-1.436,3.209-3.209v-25.67C103.209,149.57,101.771,148.133,100,148.133z"/>
	<path fill="#8075F2" d="M48.657,96.791H22.986c-1.772,0-3.209,1.438-3.209,3.21c0,1.771,1.437,3.208,3.209,3.208h25.671
		c1.772,0,3.209-1.438,3.209-3.208C51.866,98.228,50.43,96.791,48.657,96.791z"/>
	<path fill="#8075F2" d="M177.014,96.791h-25.672c-1.771,0-3.209,1.438-3.209,3.21c0,1.771,1.438,3.208,3.209,3.208h25.672
		c1.771,0,3.209-1.438,3.209-3.208C180.223,98.228,178.785,96.791,177.014,96.791z"/>
</g>
</svg>
