<svg xmlns="http://www.w3.org/2000/svg" viewBox="0 0 25 25"><defs><style>.cls-1{fill:#e8e5fe;}.cls-2{fill:#8075f2;}</style></defs><title>security-guard</title><g id="budicon-security-guard"><path class="cls-1" d="M19,1V8c0,4.2437-5.1872,11-9.5,11a6.7374,6.7374,0,0,1-3.81-1.481C7.5757,20.0117,10.1631,22,12.5,22c4.3128,0,9.5-6.7563,9.5-11V1Z"/><path class="cls-2" d="M2,0V11c0,4.625,5.4375,12,10.5,12S23,15.625,23,11V0ZM22,11c0,4.2437-5.1872,11-9.5,11S3,15.2437,3,11V1H22Z"/><path class="cls-2" d="M12.5,20a.5.5,0,0,0,0-1C9.5493,19,6,14.3936,6,11.5V4h4.5a.5.5,0,0,0,0-1h-5a.5.5,0,0,0-.5.5v8C5,14.9336,8.9507,20,12.5,20Z"/></g></svg>