<?xml version="1.0" encoding="utf-8"?>
<!-- Generator: Adobe Illustrator 16.0.0, SVG Export Plug-In . SVG Version: 6.00 Build 0)  -->
<!DOCTYPE svg PUBLIC "-//W3C//DTD SVG 1.1//EN" "http://www.w3.org/Graphics/SVG/1.1/DTD/svg11.dtd">
<svg version="1.1" id="Layer_1" xmlns="http://www.w3.org/2000/svg" xmlns:xlink="http://www.w3.org/1999/xlink" x="0px" y="0px"
	 width="200px" height="200px" viewBox="0 0 200 200" enable-background="new 0 0 200 200" xml:space="preserve">
<g id="budicon-good-trends">
	<polygon fill="#E8E5FE" points="63.216,174.693 50.25,174.693 50.25,165.356 63.216,152.908 	"/>
	<polygon fill="#E8E5FE" points="106.27,174.693 93.304,174.693 93.304,134.234 106.27,121.786 	"/>
	<polygon fill="#E8E5FE" points="150.357,174.693 137.393,174.693 137.393,103.112 150.357,90.664 	"/>
	<path fill="#8075F2" d="M59.587,134.234h-6.225c-5.156,0-9.337,4.181-9.337,9.337v24.897c0,5.157,4.181,9.337,9.337,9.337h6.225
		c5.156,0,9.337-4.18,9.337-9.337v-24.897C68.924,138.415,64.743,134.234,59.587,134.234z M62.699,168.469
		c-0.002,1.719-1.395,3.111-3.112,3.112h-6.225c-1.718-0.001-3.109-1.394-3.112-3.112v-24.897c0.003-1.718,1.395-3.109,3.112-3.112
		h6.225c1.718,0.003,3.11,1.395,3.112,3.112V168.469z"/>
	<path fill="#8075F2" d="M103.158,103.112h-6.225c-5.156,0-9.337,4.181-9.337,9.337v56.02c0,5.157,4.181,9.337,9.337,9.337h6.225
		c5.156,0,9.336-4.18,9.336-9.337v-56.02C112.494,107.293,108.314,103.112,103.158,103.112z M106.27,168.469
		c-0.001,1.719-1.394,3.111-3.111,3.112h-6.225c-1.719-0.001-3.111-1.394-3.112-3.112v-56.02c0.001-1.719,1.394-3.109,3.112-3.112
		h6.225c1.718,0.003,3.11,1.394,3.111,3.112V168.469z"/>
	<path fill="#8075F2" d="M146.729,65.766h-6.225c-5.156,0-9.336,4.181-9.336,9.337v93.366c0,5.157,4.18,9.337,9.336,9.337h6.225
		c5.157,0,9.337-4.18,9.337-9.337V75.103C156.065,69.946,151.886,65.766,146.729,65.766z M149.841,168.469
		c-0.002,1.719-1.394,3.111-3.112,3.112h-6.225c-1.718-0.001-3.11-1.394-3.111-3.112V75.103c0.001-1.718,1.394-3.109,3.111-3.112
		h6.225c1.719,0.003,3.11,1.395,3.112,3.112V168.469z"/>
	<path fill="#8075F2" d="M162.277,25.245c-0.02-0.255-0.071-0.505-0.151-0.748c-0.023-0.147-0.058-0.292-0.103-0.435
		c-0.089-0.16-0.191-0.312-0.305-0.455c-0.11-0.191-0.241-0.372-0.391-0.536l-0.042-0.057c-0.129-0.093-0.267-0.177-0.409-0.248
		c-0.178-0.137-0.37-0.253-0.574-0.346c-0.221-0.071-0.449-0.118-0.681-0.138c-0.146-0.041-0.294-0.07-0.444-0.088H134.28
		c-1.719,0-3.112,1.393-3.112,3.111c0,1.72,1.394,3.112,3.112,3.112h17.643c-43.841,44.878-111.757,80.905-112.456,81.277
		c-1.548,0.748-2.194,2.608-1.446,4.156s2.609,2.194,4.157,1.446c0.062-0.03,0.122-0.062,0.182-0.096
		c0.719-0.377,69.13-36.66,113.706-82.123v17.125c0,1.719,1.394,3.112,3.112,3.112s3.112-1.394,3.112-3.112V25.307L162.277,25.245z"
		/>
</g>
</svg>
