<svg xmlns="http://www.w3.org/2000/svg" viewBox="0 0 25 25"><defs><style>.cls-1{fill:#e8e5fe;}.cls-2{fill:#8075f2;}</style></defs><title>camera-timer</title><g id="budicon-camera-timer"><path class="cls-1" d="M24,12.5a11.4419,11.4419,0,0,1-2.5868,7.2539L13,12.2754V1.0254A11.5044,11.5044,0,0,1,24,12.5Z"/><path class="cls-2" d="M12.5,0A12.5,12.5,0,1,0,25,12.5,12.5,12.5,0,0,0,12.5,0ZM24,12.5a11.4419,11.4419,0,0,1-2.5868,7.2539L13,12.2754V1.0254A11.5044,11.5044,0,0,1,24,12.5ZM13,23.9746V21.5a.5.5,0,0,0-1,0v2.4746a11.44,11.44,0,0,1-7.2575-3.01L6.49,19.2178a.5.5,0,0,0-.7071-.7075L4.0354,20.2578A11.439,11.439,0,0,1,1.0253,13H3.5a.5.5,0,0,0,0-1H1.0253a11.439,11.439,0,0,1,3.01-7.2578L5.7825,6.49A.5.5,0,0,0,6.49,5.7822L4.7426,4.0352A11.44,11.44,0,0,1,12,1.0254V12.5a.4992.4992,0,0,0,.168.3735l8.5778,7.6245A11.4543,11.4543,0,0,1,13,23.9746Z"/></g></svg>