<?xml version="1.0" encoding="utf-8"?>
<!-- Generator: Adobe Illustrator 17.0.0, SVG Export Plug-In . SVG Version: 6.00 Build 0)  -->
<!DOCTYPE svg PUBLIC "-//W3C//DTD SVG 1.1//EN" "http://www.w3.org/Graphics/SVG/1.1/DTD/svg11.dtd">
<svg version="1.1" id="Layer_1" xmlns="http://www.w3.org/2000/svg" xmlns:xlink="http://www.w3.org/1999/xlink" x="0px" y="0px"
	 width="144px" height="96px" viewBox="0 0 144 96" enable-background="new 0 0 144 96" xml:space="preserve">
<g id="budicon-express">
	<path fill="#E8E5FE" d="M45,71.987c-1.024,0.01-2.039,0.197-3,0.553c4.665,1.627,7.128,6.726,5.501,11.391
		c-0.899,2.576-2.924,4.602-5.501,5.5c0.961,0.355,1.976,0.542,3,0.552c4.971,0,9-4.029,9-8.998S49.971,71.987,45,71.987z"/>
	<path fill="#E8E5FE" d="M105,71.987c-1.024,0.01-2.039,0.197-3,0.553c4.665,1.627,7.128,6.726,5.501,11.391
		c-0.899,2.576-2.924,4.602-5.501,5.5c0.961,0.355,1.976,0.542,3,0.552c4.971,0,9-4.029,9-8.998S109.971,71.987,105,71.987z"/>
	<path fill="#8075F2" d="M142.243,34.236l-13.606-13.602c-1.687-1.688-3.977-2.637-6.364-2.637H108V8.998C108,4.029,103.971,0,99,0
		H3C1.343,0,0,1.343,0,2.999s1.343,2.999,3,2.999h12c1.657,0,3,1.343,3,2.999s-1.343,2.999-3,2.999H9c-1.657,0-3,1.343-3,2.999
		s1.343,2.999,3,2.999h6c1.657,0,3,1.343,3,2.999s-1.343,2.999-3,2.999l0,0c-1.657,0-3,1.343-3,2.999c0,1.657,1.343,2.999,3,2.999h3
		v44.992c0,4.97,4.029,8.998,9,8.998h3.3c1.649,8.117,9.566,13.361,17.685,11.713c5.903-1.198,10.516-5.811,11.715-11.713h30.605
		c1.655,8.116,9.577,13.353,17.694,11.699c5.893-1.201,10.499-5.806,11.701-11.699H135c4.971,0,9-4.029,9-8.998V38.479
		C144,36.887,143.368,35.361,142.243,34.236z M108,23.996h14.272c0.796-0.002,1.56,0.314,2.122,0.879L138,38.479v3.514h-30V23.996z
		 M45,89.983c-4.971,0-9-4.029-9-8.998s4.029-8.998,9-8.998s9,4.029,9,8.998C53.994,85.952,49.968,89.978,45,89.983z M90.3,77.985
		H59.7c-1.655-8.116-9.577-13.353-17.694-11.699c-5.893,1.201-10.499,5.806-11.701,11.699H27c-1.656-0.002-2.998-1.344-3-2.999
		V29.994h9c1.657,0,3-1.343,3-2.999c0-1.657-1.343-2.999-3-2.999h-9v-5.999h9c1.657,0,3-1.343,3-2.999s-1.343-2.999-3-2.999h-9
		V8.998c0.002-1.656,1.344-2.997,3-2.999h72c1.656,0.002,2.998,1.344,3,2.999v57.289c-5.89,1.206-10.492,5.809-11.697,11.698H90.3z
		 M105,89.983c-4.971,0-9-4.029-9-8.998s4.029-8.998,9-8.998s9,4.029,9,8.998C113.994,85.952,109.968,89.978,105,89.983z
		 M135,77.985h-15.3c-1.206-5.89-5.809-10.492-11.7-11.698V47.991h30v26.995C137.998,76.642,136.656,77.983,135,77.985z"/>
</g>
</svg>
