<svg xmlns="http://www.w3.org/2000/svg" viewBox="0 0 25 25"><title>user</title><g id="budicon-user"><path d="M13,1a4.932,4.932,0,0,0-1.5.2553,4.966,4.966,0,0,1,0,9.4894A4.932,4.932,0,0,0,13,11,5,5,0,0,0,13,1Z" style="fill:#e8e5fe"/><path d="M18,20v2h3.5V20a8,8,0,0,0-8-8,14.2686,14.2686,0,0,0-2,.1454A7.9989,7.9989,0,0,1,18,20Z" style="fill:#e8e5fe"/><path d="M15.62,11.3916a6,6,0,1,0-5.24,0A9.0138,9.0138,0,0,0,4,20v1.5a.5.5,0,0,0,1,0V20a8,8,0,0,1,16,0v1.5a.5.5,0,0,0,1,0V20A9.0138,9.0138,0,0,0,15.62,11.3916ZM8,6a5,5,0,1,1,5,5A5.0056,5.0056,0,0,1,8,6Z" style="fill:#8075f2"/></g></svg>