<?xml version="1.0" encoding="utf-8"?>
<!-- Generator: Adobe Illustrator 16.0.0, SVG Export Plug-In . SVG Version: 6.00 Build 0)  -->
<!DOCTYPE svg PUBLIC "-//W3C//DTD SVG 1.1//EN" "http://www.w3.org/Graphics/SVG/1.1/DTD/svg11.dtd">
<svg version="1.1" id="Layer_1" xmlns="http://www.w3.org/2000/svg" xmlns:xlink="http://www.w3.org/1999/xlink" x="0px" y="0px"
	 width="718px" height="1455px" viewBox="0 0 718 1455" enable-background="new 0 0 718 1455" xml:space="preserve">
<g>
	<path fill="#FAFAFA" d="M718,1352c0,56.886-46.114,103-103,103H103c-56.885,0-103-46.114-103-103V103C0,46.115,46.115,0,103,0h512
		c56.886,0,103,46.115,103,103V1352z"/>
</g>
<g id="inside">
	<g>
		<defs>
			<path id="SVGID_1_" d="M692,1353c0,43.078-34.922,78-78,78H101c-43.078,0-78-34.922-78-78V103c0-43.078,34.922-78,78-78h513
				c43.078,0,78,34.922,78,78V1353z"/>
		</defs>
		<clipPath id="SVGID_2_">
			<use xlink:href="#SVGID_1_"  overflow="visible"/>
		</clipPath>
		<rect x="23" y="25" clip-path="url(#SVGID_2_)" fill="#FFFFFF" width="669" height="1406"/>
	</g>
	<g>
		<defs>
			<path id="SVGID_3_" d="M692,1353c0,43.078-34.922,78-78,78H101c-43.078,0-78-34.922-78-78V103c0-43.078,34.922-78,78-78h513
				c43.078,0,78,34.922,78,78V1353z"/>
		</defs>
		<clipPath id="SVGID_4_">
			<use xlink:href="#SVGID_3_"  overflow="visible"/>
		</clipPath>
		<path id="os-draggable-nav" clip-path="url(#SVGID_4_)" fill="#CCCCCC" d="M475,1403.795c0,2.641-2.446,4.205-4.688,4.205H243.755
			c-2.241,0-4.755-1.564-4.755-4.205v-1.062c0-2.641,2.514-4.732,4.755-4.732h226.56c2.239,0,4.687,2.093,4.687,4.732L475,1403.795
			L475,1403.795z"/>
	</g>
	<g>
		<defs>
			<path id="SVGID_5_" d="M692,1353c0,43.078-34.922,78-78,78H101c-43.078,0-78-34.922-78-78V103c0-43.078,34.922-78,78-78h513
				c43.078,0,78,34.922,78,78V1353z"/>
		</defs>
		<clipPath id="SVGID_6_">
			<use xlink:href="#SVGID_5_"  overflow="visible"/>
		</clipPath>
		<rect x="36" y="25" clip-path="url(#SVGID_6_)" fill="#765EEF" width="658" height="183"/>
	</g>
	<g>
		<defs>
			<path id="SVGID_7_" d="M692,1353c0,43.078-34.922,78-78,78H101c-43.078,0-78-34.922-78-78V103c0-43.078,34.922-78,78-78h513
				c43.078,0,78,34.922,78,78V1353z"/>
		</defs>
		<clipPath id="SVGID_8_">
			<use xlink:href="#SVGID_7_"  overflow="visible"/>
		</clipPath>
		<g id="screen-border" clip-path="url(#SVGID_8_)">
			<path fill="#F8F8F8" d="M614.5,33c38.32,0,69.5,31.18,69.5,69.5v1250c0,38.32-31.18,69.5-69.5,69.5h-513
				c-38.32,0-69.5-31.18-69.5-69.5v-1250C32,64.18,63.18,33,101.5,33h73.047c1.047,20,17.894,37,38.453,37h291
				c20.559,0,37.406-17,38.453-37H614 M614.5,25h-75.588c-3.117,1-4.912,3.302-4.912,6.5V31c0,16.568-13.432,30-30,30H213
				c-16.568,0-30-13.432-30-30v0.5c0-3.198-1.795-5.5-4.912-6.5H101.5C58.422,25,23,59.422,23,102.5v1250
				c0,43.078,35.422,78.5,78.5,78.5h513c43.078,0,77.5-35.422,77.5-78.5v-1250C692,59.422,657.578,25,614.5,25L614.5,25z"/>
		</g>
	</g>
</g>
<path fill="#FAFAFA" d="M542,1L542,1h-8H183h-8l0,0v22.5V24c5,0,8,3.358,8,7.5V31c0,16.568,13.432,30,30,30h291
	c16.568,0,30-13.432,30-30v0.5c0-4.142,3-7.5,8-7.5v-0.5V1z"/>
<path fill="#CCCCCC" d="M392,34c0,2.761-2.238,5-5,5h-73c-2.761,0-5-2.239-5-5l0,0c0-2.761,2.239-5,5-5h73
	C389.762,29,392,31.239,392,34L392,34z"/>
<circle fill="#CCCCCC" cx="404.75" cy="34" r="5"/>
<g>
	<path fill="#FFFFFF" d="M180.09,124.559l9.475,18.517l9.637-18.517h8.067L193.3,149.573V163h-7.417v-13.536l-13.915-24.906
		L180.09,124.559L180.09,124.559z"/>
	<path fill="#FFFFFF" d="M218.856,163.542c-2.311,0-4.386-0.397-6.227-1.191c-1.841-0.793-3.402-1.868-4.683-3.221
		c-1.282-1.354-2.266-2.915-2.951-4.684c-0.687-1.768-1.029-3.627-1.029-5.577c0-1.984,0.342-3.862,1.029-5.631
		c0.685-1.768,1.669-3.33,2.951-4.683c1.281-1.354,2.842-2.427,4.683-3.222c1.841-0.793,3.916-1.191,6.227-1.191
		c2.31,0,4.376,0.397,6.199,1.191c1.822,0.794,3.375,1.868,4.656,3.222c1.281,1.354,2.265,2.915,2.951,4.683
		c0.685,1.769,1.028,3.646,1.028,5.631c0,1.949-0.343,3.809-1.028,5.577c-0.687,1.769-1.661,3.33-2.924,4.684
		c-1.264,1.354-2.815,2.428-4.656,3.221C223.242,163.144,221.166,163.542,218.856,163.542z M211.439,148.869
		c0,1.264,0.189,2.41,0.568,3.438c0.379,1.029,0.902,1.922,1.57,2.68c0.667,0.758,1.453,1.345,2.355,1.76
		c0.902,0.416,1.876,0.623,2.924,0.623c1.046,0,2.021-0.207,2.924-0.623c0.902-0.415,1.687-1.002,2.355-1.76
		c0.667-0.758,1.191-1.66,1.57-2.707c0.379-1.046,0.568-2.201,0.568-3.465c0-1.227-0.189-2.364-0.568-3.411
		c-0.379-1.047-0.903-1.949-1.57-2.708c-0.668-0.758-1.453-1.344-2.355-1.759c-0.903-0.415-1.877-0.623-2.924-0.623
		s-2.022,0.217-2.924,0.65c-0.902,0.433-1.688,1.029-2.355,1.787c-0.668,0.758-1.191,1.661-1.57,2.707
		C211.628,146.505,211.439,147.642,211.439,148.869z"/>
	<path fill="#FFFFFF" d="M247.226,163.542c-2.923,0-5.144-0.938-6.659-2.815c-1.516-1.876-2.274-4.656-2.274-8.338V134.63h7.255
		v16.188c0,4.368,1.57,6.551,4.71,6.551c1.408,0,2.77-0.424,4.088-1.272c1.317-0.848,2.391-2.139,3.221-3.871V134.63h7.255v20.033
		c0,0.758,0.135,1.299,0.406,1.624c0.271,0.325,0.712,0.506,1.326,0.542V163c-0.722,0.144-1.326,0.234-1.813,0.271
		c-0.487,0.036-0.93,0.054-1.327,0.054c-1.299,0-2.355-0.298-3.167-0.893c-0.812-0.596-1.291-1.417-1.435-2.464l-0.163-2.274
		c-1.264,1.949-2.888,3.411-4.873,4.386C251.792,163.054,249.608,163.542,247.226,163.542z"/>
	<path fill="#FFFFFF" d="M288.916,140.91c-2.202,0.037-4.169,0.46-5.902,1.272c-1.732,0.812-2.978,2.03-3.736,3.655V163h-7.255
		v-28.371h6.66v6.064c0.505-0.975,1.101-1.85,1.787-2.626c0.685-0.776,1.425-1.453,2.22-2.03c0.793-0.577,1.597-1.02,2.41-1.327
		c0.812-0.306,1.597-0.46,2.355-0.46c0.397,0,0.694,0,0.894,0c0.198,0,0.387,0.019,0.568,0.054L288.916,140.91L288.916,140.91z"/>
	<path fill="#FFFFFF" d="M314.634,124.559h6.605L335.858,163h-7.688l-3.573-9.583h-13.428L307.65,163h-7.688L314.634,124.559z
		 M323.243,148.165l-5.306-15.106l-5.522,15.106H323.243z"/>
	<path fill="#FFFFFF" d="M336.833,148.814c0-1.984,0.342-3.862,1.029-5.631c0.685-1.768,1.678-3.32,2.978-4.656
		c1.299-1.335,2.87-2.4,4.71-3.194c1.841-0.793,3.916-1.191,6.228-1.191c3.104,0,5.748,0.668,7.932,2.003
		c2.184,1.336,3.817,3.086,4.899,5.252l-7.093,2.166c-0.613-1.046-1.426-1.849-2.437-2.409c-1.011-0.559-2.13-0.839-3.357-0.839
		c-1.047,0-2.021,0.208-2.924,0.623s-1.688,0.993-2.354,1.732c-0.668,0.74-1.191,1.633-1.57,2.68
		c-0.379,1.047-0.568,2.202-0.568,3.465c0,1.264,0.198,2.419,0.597,3.465c0.396,1.047,0.929,1.949,1.597,2.707
		c0.667,0.758,1.452,1.345,2.354,1.76c0.902,0.416,1.859,0.623,2.87,0.623c1.299,0,2.499-0.325,3.602-0.975
		c1.101-0.65,1.868-1.443,2.301-2.382l7.093,2.166c-0.975,2.166-2.582,3.935-4.817,5.306c-2.239,1.372-4.929,2.058-8.068,2.058
		c-2.312,0-4.386-0.397-6.228-1.191c-1.841-0.793-3.41-1.868-4.71-3.221c-1.299-1.353-2.301-2.924-3.005-4.71
		C337.185,152.632,336.833,150.764,336.833,148.814z"/>
	<path fill="#FFFFFF" d="M367.1,148.814c0-1.984,0.343-3.862,1.028-5.631c0.686-1.768,1.679-3.32,2.979-4.656
		c1.299-1.335,2.868-2.4,4.711-3.194c1.84-0.793,3.916-1.191,6.227-1.191c3.104,0,5.747,0.668,7.932,2.003
		c2.185,1.336,3.816,3.086,4.899,5.252l-7.093,2.166c-0.613-1.046-1.426-1.849-2.437-2.409c-1.012-0.559-2.131-0.839-3.356-0.839
		c-1.047,0-2.021,0.208-2.924,0.623s-1.688,0.993-2.355,1.732c-0.668,0.74-1.191,1.633-1.57,2.68
		c-0.379,1.047-0.567,2.202-0.567,3.465c0,1.264,0.197,2.419,0.596,3.465c0.396,1.047,0.93,1.949,1.598,2.707
		c0.668,0.758,1.452,1.345,2.355,1.76c0.901,0.416,1.857,0.623,2.869,0.623c1.299,0,2.499-0.325,3.601-0.975
		s1.868-1.443,2.301-2.382l7.094,2.166c-0.976,2.166-2.581,3.935-4.818,5.306c-2.238,1.372-4.928,2.058-8.067,2.058
		c-2.311,0-4.386-0.397-6.227-1.191c-1.841-0.793-3.411-1.868-4.71-3.221c-1.3-1.354-2.301-2.924-3.006-4.71
		C367.451,152.632,367.1,150.764,367.1,148.814z"/>
	<path fill="#FFFFFF" d="M412.254,163.542c-2.311,0-4.385-0.397-6.227-1.191c-1.84-0.793-3.402-1.868-4.684-3.221
		c-1.282-1.354-2.266-2.915-2.95-4.684c-0.688-1.768-1.028-3.627-1.028-5.577c0-1.984,0.342-3.862,1.028-5.631
		c0.686-1.768,1.668-3.33,2.95-4.683c1.28-1.354,2.843-2.427,4.684-3.222c1.842-0.793,3.916-1.191,6.227-1.191
		c2.312,0,4.377,0.397,6.199,1.191s3.375,1.868,4.656,3.222c1.28,1.354,2.266,2.915,2.95,4.683c0.687,1.769,1.029,3.646,1.029,5.631
		c0,1.949-0.344,3.809-1.029,5.577c-0.686,1.769-1.659,3.33-2.924,4.684c-1.264,1.354-2.813,2.428-4.655,3.221
		C416.641,163.144,414.564,163.542,412.254,163.542z M404.837,148.869c0,1.264,0.189,2.41,0.568,3.438
		c0.379,1.029,0.9,1.922,1.569,2.68c0.667,0.758,1.452,1.345,2.354,1.76c0.902,0.416,1.877,0.623,2.924,0.623
		s2.021-0.207,2.924-0.623c0.902-0.415,1.688-1.002,2.355-1.76c0.667-0.758,1.19-1.66,1.569-2.707
		c0.38-1.046,0.568-2.201,0.568-3.465c0-1.227-0.188-2.364-0.568-3.411c-0.379-1.047-0.901-1.949-1.569-2.708
		c-0.668-0.758-1.453-1.344-2.355-1.759c-0.901-0.415-1.877-0.623-2.924-0.623s-2.021,0.217-2.924,0.65
		c-0.903,0.433-1.688,1.029-2.354,1.787c-0.669,0.758-1.19,1.661-1.569,2.707C405.026,146.505,404.837,147.642,404.837,148.869z"/>
	<path fill="#FFFFFF" d="M440.625,163.542c-2.924,0-5.145-0.938-6.66-2.815c-1.516-1.876-2.272-4.656-2.272-8.338V134.63h7.255
		v16.188c0,4.368,1.569,6.551,4.71,6.551c1.408,0,2.77-0.424,4.088-1.272c1.316-0.848,2.391-2.139,3.222-3.871V134.63h7.255v20.033
		c0,0.758,0.137,1.299,0.406,1.624c0.271,0.325,0.713,0.506,1.326,0.542V163c-0.722,0.144-1.326,0.234-1.812,0.271
		c-0.487,0.036-0.931,0.054-1.326,0.054c-1.301,0-2.355-0.298-3.167-0.893c-0.812-0.596-1.291-1.417-1.437-2.464l-0.162-2.274
		c-1.264,1.949-2.889,3.411-4.873,4.386C445.19,163.054,443.007,163.542,440.625,163.542z"/>
	<path fill="#FFFFFF" d="M491.789,163h-7.255v-15.918c0-2.274-0.397-3.934-1.19-4.981c-0.795-1.047-1.896-1.57-3.303-1.57
		c-0.723,0-1.463,0.145-2.221,0.433c-0.759,0.29-1.472,0.695-2.14,1.218s-1.271,1.146-1.812,1.868
		c-0.542,0.723-0.938,1.516-1.191,2.382V163h-7.255v-28.371h6.551v5.251c1.047-1.804,2.562-3.212,4.549-4.223
		c1.984-1.01,4.224-1.516,6.714-1.516c1.769,0,3.213,0.325,4.332,0.975c1.117,0.649,1.983,1.498,2.599,2.544
		c0.613,1.047,1.037,2.238,1.271,3.573c0.234,1.336,0.353,2.689,0.353,4.061L491.789,163L491.789,163z"/>
	<path fill="#FFFFFF" d="M514.854,161.538c-0.975,0.433-2.166,0.866-3.572,1.299c-1.408,0.433-2.89,0.65-4.439,0.65
		c-1.012,0-1.959-0.127-2.844-0.379s-1.66-0.658-2.328-1.218c-0.668-0.559-1.199-1.281-1.597-2.166
		c-0.397-0.884-0.597-1.958-0.597-3.221v-16.297h-3.734v-5.577h3.734v-9.205h7.256v9.205h5.956v5.577h-5.956v13.86
		c0,1.011,0.262,1.724,0.784,2.139c0.523,0.416,1.164,0.623,1.923,0.623s1.498-0.126,2.221-0.379
		c0.722-0.252,1.299-0.469,1.732-0.65L514.854,161.538z"/>
	<path fill="#FFFFFF" d="M529.364,163.542c-2.383,0-4.711-0.379-6.985-1.137c-2.272-0.758-4.223-1.841-5.847-3.249l2.707-4.548
		c1.731,1.228,3.419,2.157,5.062,2.788c1.643,0.632,3.275,0.948,4.899,0.948c1.442,0,2.58-0.271,3.411-0.812
		c0.83-0.542,1.245-1.317,1.245-2.328c0-1.01-0.487-1.75-1.462-2.22c-0.976-0.468-2.563-1.01-4.766-1.624
		c-1.841-0.505-3.41-0.992-4.71-1.462c-1.3-0.469-2.347-1.001-3.141-1.597c-0.794-0.596-1.372-1.281-1.732-2.058
		c-0.361-0.775-0.541-1.706-0.541-2.788c0-1.443,0.279-2.743,0.839-3.898c0.561-1.155,1.346-2.139,2.355-2.951
		s2.191-1.435,3.546-1.868c1.354-0.433,2.824-0.649,4.413-0.649c2.129,0,4.123,0.307,5.981,0.92
		c1.858,0.614,3.564,1.606,5.116,2.978l-2.923,4.386c-1.444-1.083-2.843-1.876-4.196-2.382c-1.354-0.505-2.698-0.758-4.033-0.758
		c-1.229,0-2.257,0.253-3.086,0.758c-0.831,0.506-1.245,1.318-1.245,2.437c0,0.506,0.099,0.92,0.298,1.245
		c0.197,0.325,0.515,0.614,0.947,0.866c0.434,0.253,1.002,0.497,1.705,0.731c0.703,0.235,1.578,0.479,2.626,0.731
		c1.948,0.506,3.618,1.011,5.009,1.516c1.389,0.506,2.525,1.083,3.41,1.732c0.885,0.65,1.533,1.399,1.949,2.247
		c0.414,0.849,0.622,1.868,0.622,3.059c0,2.78-1.028,4.973-3.086,6.578C535.698,162.739,532.9,163.542,529.364,163.542z"/>
</g>
<g>
	<g>
		<path fill="#FFFFFF" d="M666,468.127C666,481.864,654.864,493,641.127,493H66.873C53.136,493,42,481.864,42,468.127V267.873
			C42,254.136,53.136,243,66.873,243h574.254C654.864,243,666,254.136,666,267.873V468.127z"/>
		<path fill="#FAFAFA" d="M640.834,245c12.543,0,23.166,9.956,23.166,22.499v200.002C664,480.044,653.377,490,640.834,490H66.833
			C54.29,490,44,480.044,44,467.501V267.499C44,254.956,54.29,245,66.833,245H641 M640.834,241H66.833
			C51.921,241,40,252.588,40,267.499v200.002C40,482.412,51.921,495,66.833,495h574.001C655.745,495,668,482.412,668,467.501
			V267.499C668,252.588,655.745,241,640.834,241L640.834,241z"/>
	</g>
	<path fill="#E6E6E6" d="M307,294.5c0,8.561-6.939,15.5-15.5,15.5h-196c-8.561,0-15.5-6.939-15.5-15.5l0,0
		c0-8.561,6.939-15.5,15.5-15.5h196C300.061,279,307,285.939,307,294.5L307,294.5z"/>
	<circle fill="#F9C0F9" cx="586.413" cy="317.114" r="43.498"/>
	<path fill="#6AE5A2" d="M286,338.733c0,8.432-6.835,15.267-15.267,15.267H137.267c-8.432,0-15.267-6.835-15.267-15.267v-0.467
		c0-8.432,6.835-15.267,15.267-15.267h133.467c8.432,0,15.267,6.835,15.267,15.267L286,338.733L286,338.733z"/>
	<circle fill="#6AE5A2" cx="96.833" cy="338.5" r="15.5"/>
	<rect x="80" y="393" fill="#FAFAFA" width="550" height="5"/>
	<g>
		<path fill="#3E396B" d="M90.334,438.375c2.072,0,3.721,0.582,4.947,1.744c1.226,1.163,1.839,2.756,1.839,4.779
			c0,2.395-0.738,4.235-2.213,5.525c-1.475,1.29-3.586,1.936-6.333,1.936c-2.384,0-4.31-0.387-5.775-1.158v-3.914
			c0.772,0.411,1.671,0.746,2.697,1.004c1.026,0.259,1.999,0.388,2.917,0.388c2.766,0,4.148-1.133,4.148-3.4
			c0-2.16-1.432-3.239-4.295-3.239c-0.518,0-1.09,0.051-1.715,0.154c-0.625,0.103-1.134,0.212-1.524,0.33l-1.803-0.968l0.806-10.92
			h11.624v3.84h-7.652l-0.396,4.207l0.513-0.103C88.716,438.444,89.455,438.375,90.334,438.375z"/>
		<path fill="#3E396B" d="M114.535,441.351c0,3.743-0.613,6.514-1.84,8.312c-1.227,1.798-3.115,2.697-5.666,2.697
			c-2.473,0-4.336-0.929-5.592-2.785s-1.883-4.599-1.883-8.224c0-3.781,0.61-6.568,1.832-8.362c1.222-1.793,3.103-2.69,5.644-2.69
			c2.472,0,4.341,0.938,5.607,2.814C113.903,434.989,114.535,437.735,114.535,441.351z M104.054,441.351
			c0,2.63,0.227,4.514,0.682,5.651c0.455,1.139,1.219,1.708,2.294,1.708c1.056,0,1.818-0.576,2.287-1.729
			c0.469-1.153,0.704-3.029,0.704-5.63c0-2.629-0.237-4.517-0.711-5.666c-0.474-1.148-1.234-1.723-2.279-1.723
			c-1.065,0-1.828,0.574-2.287,1.723C104.284,436.834,104.054,438.722,104.054,441.351z"/>
		<path fill="#3E396B" d="M131.671,441.351c0,3.743-0.613,6.514-1.84,8.312c-1.227,1.798-3.115,2.697-5.666,2.697
			c-2.473,0-4.336-0.929-5.592-2.785c-1.256-1.856-1.883-4.599-1.883-8.224c0-3.781,0.61-6.568,1.832-8.362
			c1.222-1.793,3.103-2.69,5.644-2.69c2.472,0,4.341,0.938,5.607,2.814S131.671,437.735,131.671,441.351z M121.19,441.351
			c0,2.63,0.227,4.514,0.682,5.651c0.455,1.139,1.219,1.708,2.294,1.708c1.056,0,1.818-0.576,2.287-1.729
			c0.469-1.153,0.704-3.029,0.704-5.63c0-2.629-0.237-4.517-0.711-5.666c-0.474-1.148-1.234-1.723-2.279-1.723
			c-1.065,0-1.828,0.574-2.287,1.723C121.42,436.834,121.19,438.722,121.19,441.351z"/>
		<path fill="#3E396B" d="M143.237,452.066v-21.432h4.544v17.679h8.693v3.752L143.237,452.066L143.237,452.066z"/>
		<path fill="#3E396B" d="M159.654,431.442c0-1.456,0.811-2.185,2.434-2.185c1.622,0,2.433,0.729,2.433,2.185
			c0,0.693-0.203,1.233-0.608,1.619c-0.406,0.387-1.014,0.579-1.825,0.579C160.465,433.641,159.654,432.908,159.654,431.442z
			 M164.316,452.066h-4.471v-16.389h4.471V452.066z"/>
		<path fill="#3E396B" d="M173.301,443.154l1.95-2.492l4.588-4.984h5.042l-6.508,7.109l6.904,9.279h-5.16l-4.72-6.641l-1.92,1.539
			v5.102h-4.471v-22.81h4.471v10.173l-0.235,3.724L173.301,443.154L173.301,443.154z"/>
		<path fill="#3E396B" d="M195.04,452.359c-2.639,0-4.701-0.729-6.186-2.185s-2.228-3.518-2.228-6.186
			c0-2.746,0.687-4.869,2.06-6.37c1.373-1.5,3.271-2.25,5.695-2.25c2.316,0,4.119,0.66,5.409,1.979
			c1.29,1.319,1.935,3.143,1.935,5.469v2.169h-10.569c0.049,1.271,0.425,2.262,1.129,2.976c0.704,0.714,1.69,1.07,2.961,1.07
			c0.987,0,1.92-0.104,2.8-0.309c0.879-0.205,1.798-0.531,2.756-0.981v3.459c-0.782,0.391-1.618,0.682-2.507,0.872
			C197.406,452.262,196.32,452.359,195.04,452.359z M194.41,438.551c-0.948,0-1.691,0.3-2.228,0.901
			c-0.538,0.601-0.846,1.454-0.924,2.558h6.274c-0.02-1.104-0.308-1.957-0.865-2.558C196.11,438.851,195.357,438.551,194.41,438.551
			z"/>
		<path fill="#3E396B" d="M216.794,447.2c0,1.681-0.584,2.961-1.752,3.841c-1.168,0.879-2.915,1.319-5.24,1.319
			c-1.192,0-2.209-0.081-3.049-0.242s-1.627-0.398-2.36-0.711v-3.694c0.831,0.391,1.766,0.718,2.807,0.982
			c1.041,0.264,1.957,0.396,2.749,0.396c1.622,0,2.433-0.469,2.433-1.407c0-0.352-0.107-0.638-0.322-0.856
			c-0.215-0.22-0.586-0.469-1.114-0.748c-0.527-0.278-1.231-0.604-2.111-0.976c-1.261-0.527-2.187-1.016-2.778-1.466
			c-0.591-0.448-1.021-0.965-1.29-1.546c-0.269-0.582-0.403-1.297-0.403-2.146c0-1.456,0.564-2.583,1.693-3.379
			c1.129-0.797,2.729-1.195,4.801-1.195c1.974,0,3.894,0.43,5.761,1.29l-1.349,3.225c-0.821-0.352-1.588-0.64-2.301-0.864
			c-0.713-0.226-1.441-0.338-2.184-0.338c-1.319,0-1.979,0.357-1.979,1.07c0,0.4,0.213,0.748,0.638,1.041
			c0.425,0.293,1.356,0.729,2.792,1.305c1.28,0.519,2.218,1.002,2.814,1.451c0.596,0.45,1.036,0.967,1.319,1.555
			C216.652,445.69,216.794,446.389,216.794,447.2z"/>
	</g>
	<path fill="#E6E6E6" d="M630,441.5c0,8.561-6.939,15.5-15.5,15.5h-103c-8.561,0-15.5-6.939-15.5-15.5l0,0
		c0-8.561,6.939-15.5,15.5-15.5h103C623.061,426,630,432.939,630,441.5L630,441.5z"/>
</g>
<g>
	<g>
		<path fill="#FFFFFF" d="M666,765.127C666,778.864,654.864,790,641.127,790H66.873C53.136,790,42,778.864,42,765.127V564.873
			C42,551.136,53.136,540,66.873,540h574.254C654.864,540,666,551.136,666,564.873V765.127z"/>
		<path fill="#FAFAFA" d="M640.834,542C653.377,542,664,552.623,664,565.166v200.002C664,777.711,653.377,788,640.834,788H66.833
			C54.29,788,44,777.711,44,765.168V565.166C44,552.623,54.29,542,66.833,542H641 M640.834,538H66.833
			C51.921,538,40,550.254,40,565.166v200.002C40,780.079,51.921,792,66.833,792h574.001C655.745,792,668,780.079,668,765.168
			V565.166C668,550.254,655.745,538,640.834,538L640.834,538z"/>
	</g>
	<path fill="#E6E6E6" d="M307,592.5c0,8.561-6.939,15.5-15.5,15.5h-196c-8.561,0-15.5-6.939-15.5-15.5l0,0
		c0-8.561,6.939-15.5,15.5-15.5h196C300.061,577,307,583.939,307,592.5L307,592.5z"/>
	<circle fill="#B1DFFC" cx="586.413" cy="614.78" r="43.498"/>
	<path fill="#6AE5A2" d="M286,636.733c0,8.432-6.835,15.267-15.267,15.267H137.267c-8.432,0-15.267-6.835-15.267-15.267v-0.468
		c0-8.432,6.835-15.267,15.267-15.267h133.467c8.432,0,15.267,6.835,15.267,15.267L286,636.733L286,636.733z"/>
	<circle fill="#6AE5A2" cx="96.833" cy="636.167" r="15.5"/>
	<rect x="80" y="691" fill="#FAFAFA" width="550" height="5"/>
	<g>
		<path fill="#3E396B" d="M93.735,749.733h-4.53v-12.401l0.044-2.038l0.073-2.228c-0.752,0.753-1.275,1.245-1.568,1.479
			l-2.462,1.979l-2.184-2.728l6.904-5.497h3.724L93.735,749.733L93.735,749.733z"/>
		<path fill="#3E396B" d="M114.535,739.018c0,3.743-0.613,6.514-1.84,8.312c-1.227,1.798-3.115,2.697-5.666,2.697
			c-2.473,0-4.336-0.929-5.592-2.785s-1.883-4.598-1.883-8.223c0-3.782,0.61-6.569,1.832-8.363c1.222-1.793,3.103-2.69,5.644-2.69
			c2.472,0,4.341,0.938,5.607,2.814C113.903,732.656,114.535,735.402,114.535,739.018z M104.054,739.018
			c0,2.63,0.227,4.514,0.682,5.651c0.455,1.139,1.219,1.708,2.294,1.708c1.056,0,1.818-0.576,2.287-1.729
			c0.469-1.153,0.704-3.029,0.704-5.63c0-2.629-0.237-4.517-0.711-5.666c-0.474-1.148-1.234-1.723-2.279-1.723
			c-1.065,0-1.828,0.574-2.287,1.723C104.284,734.5,104.054,736.389,104.054,739.018z"/>
		<path fill="#3E396B" d="M131.671,739.018c0,3.743-0.613,6.514-1.84,8.312c-1.227,1.798-3.115,2.697-5.666,2.697
			c-2.473,0-4.336-0.929-5.592-2.785c-1.256-1.856-1.883-4.598-1.883-8.223c0-3.782,0.61-6.569,1.832-8.363
			c1.222-1.793,3.103-2.69,5.644-2.69c2.472,0,4.341,0.938,5.607,2.814S131.671,735.402,131.671,739.018z M121.19,739.018
			c0,2.63,0.227,4.514,0.682,5.651c0.455,1.139,1.219,1.708,2.294,1.708c1.056,0,1.818-0.576,2.287-1.729
			c0.469-1.153,0.704-3.029,0.704-5.63c0-2.629-0.237-4.517-0.711-5.666c-0.474-1.148-1.234-1.723-2.279-1.723
			c-1.065,0-1.828,0.574-2.287,1.723C121.42,734.5,121.19,736.389,121.19,739.018z"/>
		<path fill="#3E396B" d="M148.807,739.018c0,3.743-0.613,6.514-1.84,8.312c-1.227,1.798-3.115,2.697-5.666,2.697
			c-2.473,0-4.336-0.929-5.592-2.785s-1.883-4.598-1.883-8.223c0-3.782,0.61-6.569,1.832-8.363c1.222-1.793,3.103-2.69,5.644-2.69
			c2.472,0,4.341,0.938,5.607,2.814C148.175,732.656,148.807,735.402,148.807,739.018z M138.326,739.018
			c0,2.63,0.227,4.514,0.682,5.651c0.455,1.139,1.219,1.708,2.294,1.708c1.056,0,1.818-0.576,2.287-1.729
			c0.469-1.153,0.704-3.029,0.704-5.63c0-2.629-0.237-4.517-0.711-5.666c-0.474-1.148-1.234-1.723-2.279-1.723
			c-1.065,0-1.828,0.574-2.287,1.723C138.556,734.5,138.326,736.389,138.326,739.018z"/>
		<path fill="#3E396B" d="M160.373,749.733v-21.432h4.544v17.679h8.693v3.752L160.373,749.733L160.373,749.733z"/>
		<path fill="#3E396B" d="M176.79,729.108c0-1.456,0.811-2.185,2.434-2.185c1.622,0,2.433,0.729,2.433,2.185
			c0,0.693-0.203,1.233-0.608,1.619c-0.406,0.387-1.014,0.579-1.825,0.579C177.601,731.307,176.79,730.574,176.79,729.108z
			 M181.452,749.733h-4.471v-16.389h4.471V749.733z"/>
		<path fill="#3E396B" d="M190.437,740.82l1.95-2.492l4.588-4.984h5.042l-6.508,7.109l6.904,9.279h-5.16l-4.72-6.641l-1.92,1.539
			v5.102h-4.471v-22.81h4.471v10.173l-0.235,3.724L190.437,740.82L190.437,740.82z"/>
		<path fill="#3E396B" d="M212.176,750.026c-2.639,0-4.701-0.729-6.186-2.185c-1.485-1.456-2.228-3.518-2.228-6.186
			c0-2.746,0.687-4.869,2.06-6.37c1.373-1.5,3.271-2.25,5.695-2.25c2.316,0,4.119,0.66,5.409,1.979
			c1.29,1.319,1.935,3.143,1.935,5.469v2.169h-10.569c0.049,1.271,0.425,2.262,1.129,2.976s1.69,1.07,2.961,1.07
			c0.987,0,1.92-0.104,2.8-0.309c0.879-0.204,1.798-0.531,2.756-0.981v3.459c-0.782,0.391-1.618,0.682-2.507,0.872
			C214.542,749.929,213.457,750.026,212.176,750.026z M211.546,736.218c-0.948,0-1.691,0.3-2.228,0.901
			c-0.538,0.601-0.846,1.454-0.924,2.558h6.274c-0.02-1.104-0.308-1.957-0.865-2.558
			C213.246,736.518,212.494,736.218,211.546,736.218z"/>
		<path fill="#3E396B" d="M233.93,744.866c0,1.681-0.584,2.961-1.752,3.841c-1.168,0.879-2.915,1.319-5.24,1.319
			c-1.192,0-2.209-0.081-3.049-0.242c-0.84-0.161-1.627-0.398-2.36-0.711v-3.694c0.831,0.391,1.766,0.718,2.807,0.982
			c1.041,0.264,1.957,0.396,2.749,0.396c1.622,0,2.433-0.469,2.433-1.407c0-0.352-0.107-0.638-0.322-0.856
			c-0.215-0.22-0.586-0.469-1.114-0.748c-0.527-0.278-1.231-0.604-2.111-0.975c-1.261-0.528-2.187-1.017-2.778-1.467
			c-0.591-0.448-1.021-0.965-1.29-1.546c-0.269-0.582-0.403-1.297-0.403-2.146c0-1.456,0.564-2.583,1.693-3.379
			c1.129-0.797,2.729-1.195,4.801-1.195c1.974,0,3.894,0.43,5.761,1.29l-1.349,3.225c-0.821-0.352-1.588-0.64-2.301-0.864
			c-0.713-0.226-1.441-0.338-2.184-0.338c-1.319,0-1.979,0.357-1.979,1.07c0,0.4,0.213,0.748,0.638,1.041
			c0.425,0.293,1.356,0.729,2.792,1.305c1.28,0.519,2.218,1.002,2.814,1.451c0.596,0.45,1.036,0.967,1.319,1.555
			C233.788,743.356,233.93,744.055,233.93,744.866z"/>
	</g>
	<path fill="#E6E6E6" d="M630,739.5c0,8.561-6.939,15.5-15.5,15.5h-103c-8.561,0-15.5-6.939-15.5-15.5l0,0
		c0-8.561,6.939-15.5,15.5-15.5h103C623.061,724,630,730.939,630,739.5L630,739.5z"/>
</g>
<g>
	<g>
		<path fill="#FFFFFF" d="M666,1063.127c0,13.737-11.136,24.873-24.873,24.873H66.873C53.136,1088,42,1076.864,42,1063.127V862.873
			C42,849.136,53.136,838,66.873,838h574.254C654.864,838,666,849.136,666,862.873V1063.127z"/>
		<path fill="#FAFAFA" d="M640.834,840c12.543,0,23.166,9.956,23.166,22.499v200.002c0,12.543-10.623,22.499-23.166,22.499H66.833
			C54.29,1085,44,1075.044,44,1062.501V862.499C44,849.956,54.29,840,66.833,840H641 M640.834,836H66.833
			C51.921,836,40,847.588,40,862.499v200.002C40,1077.412,51.921,1090,66.833,1090h574.001c14.911,0,27.166-12.588,27.166-27.499
			V862.499C668,847.588,655.745,836,640.834,836L640.834,836z"/>
	</g>
	<path fill="#E6E6E6" d="M307,889.5c0,8.561-6.939,15.5-15.5,15.5h-196c-8.561,0-15.5-6.939-15.5-15.5l0,0
		c0-8.561,6.939-15.5,15.5-15.5h196C300.061,874,307,880.939,307,889.5L307,889.5z"/>
	<circle fill="#BEFCF3" cx="586.413" cy="912.113" r="43.498"/>
	<path fill="#FF8395" d="M286,933.733c0,8.432-6.835,15.267-15.267,15.267H137.267c-8.432,0-15.267-6.835-15.267-15.267v-0.468
		c0-8.432,6.835-15.267,15.267-15.267h133.467c8.432,0,15.267,6.835,15.267,15.267L286,933.733L286,933.733z"/>
	<circle fill="#FF8395" cx="96.833" cy="933.5" r="15.5"/>
	<rect x="80" y="988" fill="#FAFAFA" width="550" height="5"/>
	<g>
		<path fill="#3E396B" d="M90.334,1033.709c2.072,0,3.721,0.582,4.947,1.744c1.226,1.163,1.839,2.756,1.839,4.779
			c0,2.395-0.738,4.235-2.213,5.524c-1.476,1.291-3.586,1.937-6.333,1.937c-2.384,0-4.31-0.387-5.775-1.158v-3.914
			c0.772,0.41,1.671,0.746,2.697,1.004c1.026,0.26,1.999,0.39,2.917,0.39c2.766,0,4.148-1.134,4.148-3.4
			c0-2.16-1.432-3.24-4.295-3.24c-0.518,0-1.09,0.052-1.715,0.154s-1.134,0.213-1.524,0.33l-1.803-0.968l0.806-10.922h11.624v3.842
			h-7.652l-0.396,4.207l0.513-0.104C88.716,1033.777,89.455,1033.709,90.334,1033.709z"/>
		<path fill="#3E396B" d="M114.535,1036.686c0,3.742-0.613,6.513-1.84,8.312c-1.227,1.798-3.115,2.697-5.666,2.697
			c-2.473,0-4.336-0.929-5.592-2.785c-1.256-1.857-1.883-4.599-1.883-8.224c0-3.782,0.61-6.569,1.832-8.362
			c1.222-1.793,3.103-2.69,5.644-2.69c2.472,0,4.341,0.938,5.607,2.814C113.903,1030.323,114.535,1033.068,114.535,1036.686z
			 M104.054,1036.686c0,2.629,0.227,4.513,0.682,5.65c0.455,1.139,1.219,1.707,2.294,1.707c1.056,0,1.818-0.576,2.287-1.729
			c0.469-1.153,0.704-3.029,0.704-5.629c0-2.63-0.237-4.518-0.711-5.666c-0.474-1.147-1.234-1.723-2.279-1.723
			c-1.065,0-1.828,0.574-2.287,1.723C104.284,1032.168,104.054,1034.056,104.054,1036.686z"/>
		<path fill="#3E396B" d="M131.671,1036.686c0,3.742-0.613,6.513-1.84,8.312c-1.227,1.798-3.115,2.697-5.666,2.697
			c-2.473,0-4.336-0.929-5.592-2.785c-1.256-1.857-1.883-4.599-1.883-8.224c0-3.782,0.61-6.569,1.832-8.362s3.103-2.69,5.644-2.69
			c2.472,0,4.341,0.938,5.607,2.814S131.671,1033.068,131.671,1036.686z M121.19,1036.686c0,2.629,0.227,4.513,0.682,5.65
			c0.455,1.139,1.219,1.707,2.294,1.707c1.056,0,1.818-0.576,2.287-1.729c0.469-1.153,0.704-3.029,0.704-5.629
			c0-2.63-0.237-4.518-0.711-5.666c-0.474-1.147-1.234-1.723-2.279-1.723c-1.065,0-1.828,0.574-2.287,1.723
			C121.42,1032.168,121.19,1034.056,121.19,1036.686z"/>
		<path fill="#3E396B" d="M143.237,1047.4v-21.433h4.544v17.679h8.693v3.754H143.237z"/>
		<path fill="#3E396B" d="M159.654,1026.775c0-1.456,0.811-2.185,2.434-2.185c1.622,0,2.433,0.729,2.433,2.185
			c0,0.692-0.203,1.233-0.608,1.619c-0.406,0.387-1.014,0.579-1.825,0.579C160.465,1028.975,159.654,1028.241,159.654,1026.775z
			 M164.316,1047.4h-4.471v-16.39h4.471V1047.4z"/>
		<path fill="#3E396B" d="M173.301,1038.487l1.95-2.491l4.588-4.984h5.042l-6.508,7.109l6.904,9.279h-5.16l-4.72-6.642l-1.92,1.539
			v5.103h-4.471v-22.81h4.471v10.173l-0.235,3.724H173.301L173.301,1038.487z"/>
		<path fill="#3E396B" d="M195.04,1047.693c-2.639,0-4.701-0.729-6.186-2.186s-2.228-3.519-2.228-6.186
			c0-2.746,0.687-4.869,2.06-6.37c1.373-1.499,3.271-2.25,5.695-2.25c2.316,0,4.119,0.66,5.409,1.979
			c1.29,1.319,1.935,3.143,1.935,5.468v2.171h-10.569c0.049,1.27,0.425,2.262,1.129,2.975c0.704,0.714,1.69,1.07,2.961,1.07
			c0.987,0,1.92-0.103,2.8-0.309c0.879-0.205,1.798-0.532,2.756-0.98v3.459c-0.782,0.391-1.618,0.682-2.507,0.872
			C197.406,1047.596,196.32,1047.693,195.04,1047.693z M194.41,1033.885c-0.948,0-1.691,0.301-2.228,0.901
			c-0.538,0.601-0.846,1.454-0.924,2.558h6.274c-0.02-1.104-0.308-1.957-0.865-2.558S195.357,1033.885,194.41,1033.885z"/>
		<path fill="#3E396B" d="M216.794,1042.533c0,1.682-0.584,2.961-1.752,3.841s-2.915,1.319-5.24,1.319
			c-1.192,0-2.209-0.082-3.049-0.242c-0.84-0.161-1.627-0.398-2.36-0.711v-3.693c0.831,0.391,1.766,0.718,2.807,0.98
			c1.041,0.266,1.957,0.396,2.749,0.396c1.622,0,2.433-0.469,2.433-1.406c0-0.353-0.107-0.639-0.322-0.856
			c-0.215-0.222-0.586-0.471-1.114-0.748c-0.527-0.279-1.231-0.604-2.111-0.976c-1.261-0.527-2.187-1.017-2.778-1.467
			c-0.591-0.449-1.021-0.965-1.29-1.546s-0.403-1.298-0.403-2.147c0-1.456,0.564-2.582,1.693-3.379s2.729-1.194,4.801-1.194
			c1.974,0,3.894,0.431,5.761,1.291l-1.349,3.225c-0.821-0.353-1.588-0.641-2.301-0.865c-0.713-0.224-1.441-0.337-2.184-0.337
			c-1.319,0-1.979,0.356-1.979,1.07c0,0.399,0.213,0.747,0.638,1.04c0.425,0.293,1.356,0.729,2.792,1.305
			c1.28,0.52,2.218,1.002,2.814,1.451c0.596,0.45,1.036,0.968,1.319,1.555C216.652,1041.023,216.794,1041.723,216.794,1042.533z"/>
	</g>
	<path fill="#E6E6E6" d="M630,1036.5c0,8.561-6.939,15.5-15.5,15.5h-103c-8.561,0-15.5-6.939-15.5-15.5l0,0
		c0-8.561,6.939-15.5,15.5-15.5h103C623.061,1021,630,1027.939,630,1036.5L630,1036.5z"/>
</g>
<g>
	<g>
		<path fill="#FFFFFF" d="M666,1361.127c0,13.737-11.136,24.873-24.873,24.873H66.873C53.136,1386,42,1374.864,42,1361.127v-200.254
			C42,1147.136,53.136,1136,66.873,1136h574.254c13.737,0,24.873,11.136,24.873,24.873V1361.127z"/>
		<path fill="#FAFAFA" d="M640.834,1138c12.543,0,23.166,9.956,23.166,22.499v200.002c0,12.543-10.623,22.499-23.166,22.499H66.833
			C54.29,1383,44,1373.044,44,1360.501v-200.002C44,1147.956,54.29,1138,66.833,1138H641 M640.834,1134H66.833
			C51.921,1134,40,1145.588,40,1160.499v200.002C40,1375.412,51.921,1388,66.833,1388h574.001c14.911,0,27.166-12.588,27.166-27.499
			v-200.002C668,1145.588,655.745,1134,640.834,1134L640.834,1134z"/>
	</g>
	<path fill="#E6E6E6" d="M307,1187.5c0,8.561-6.939,15.5-15.5,15.5h-196c-8.561,0-15.5-6.939-15.5-15.5l0,0
		c0-8.561,6.939-15.5,15.5-15.5h196C300.061,1172,307,1178.939,307,1187.5L307,1187.5z"/>
	<circle fill="#B3F4CA" cx="586.413" cy="1210.113" r="43.498"/>
	<path fill="#6AE5A2" d="M286,1231.733c0,8.432-6.835,15.267-15.267,15.267H137.267c-8.432,0-15.267-6.835-15.267-15.267v-0.468
		c0-8.432,6.835-15.267,15.267-15.267h133.467c8.432,0,15.267,6.835,15.267,15.267L286,1231.733L286,1231.733z"/>
	<circle fill="#6AE5A2" cx="96.833" cy="1231.5" r="15.5"/>
	<rect x="80" y="1286" fill="#FAFAFA" width="550" height="5"/>
	<g>
		<path fill="#3E396B" d="M97.517,1345.066H82.536v-3.151l5.379-5.438c1.593-1.632,2.634-2.764,3.123-3.394
			c0.488-0.63,0.84-1.214,1.055-1.752c0.215-0.537,0.323-1.095,0.323-1.671c0-0.859-0.237-1.5-0.711-1.92s-1.107-0.631-1.898-0.631
			c-0.831,0-1.637,0.19-2.418,0.571c-0.782,0.382-1.598,0.925-2.448,1.627l-2.462-2.918c1.055-0.897,1.93-1.532,2.624-1.903
			c0.694-0.372,1.451-0.658,2.272-0.857c0.821-0.201,1.739-0.301,2.755-0.301c1.339,0,2.521,0.244,3.548,0.731
			c1.026,0.488,1.822,1.173,2.389,2.054c0.566,0.879,0.85,1.886,0.85,3.02c0,0.986-0.173,1.912-0.521,2.777
			c-0.347,0.865-0.884,1.752-1.612,2.66s-2.011,2.205-3.848,3.885l-2.756,2.595v0.206h9.337V1345.066z"/>
		<path fill="#3E396B" d="M107.47,1331.375c2.072,0,3.721,0.582,4.947,1.744c1.226,1.164,1.839,2.756,1.839,4.779
			c0,2.395-0.738,4.235-2.213,5.525s-3.586,1.936-6.333,1.936c-2.384,0-4.31-0.387-5.775-1.158v-3.914
			c0.772,0.411,1.671,0.746,2.697,1.005c1.026,0.259,1.999,0.388,2.917,0.388c2.766,0,4.148-1.133,4.148-3.399
			c0-2.16-1.432-3.239-4.295-3.239c-0.518,0-1.09,0.052-1.715,0.153c-0.625,0.104-1.134,0.213-1.524,0.33l-1.803-0.968l0.806-10.921
			h11.624v3.841h-7.652l-0.396,4.207l0.513-0.104C105.852,1331.443,106.59,1331.375,107.47,1331.375z"/>
		<path fill="#3E396B" d="M131.671,1334.352c0,3.742-0.613,6.514-1.84,8.312c-1.227,1.799-3.115,2.697-5.666,2.697
			c-2.473,0-4.336-0.929-5.592-2.785c-1.256-1.856-1.883-4.599-1.883-8.224c0-3.782,0.61-6.569,1.832-8.362s3.103-2.689,5.644-2.689
			c2.472,0,4.341,0.938,5.607,2.814C131.039,1327.989,131.671,1330.735,131.671,1334.352z M121.19,1334.352
			c0,2.63,0.227,4.513,0.682,5.65c0.455,1.139,1.219,1.707,2.294,1.707c1.056,0,1.818-0.576,2.287-1.729
			c0.469-1.154,0.704-3.029,0.704-5.629c0-2.63-0.237-4.519-0.711-5.666c-0.474-1.148-1.234-1.724-2.279-1.724
			c-1.065,0-1.828,0.574-2.287,1.724C121.42,1329.834,121.19,1331.723,121.19,1334.352z"/>
		<path fill="#3E396B" d="M143.237,1345.066v-21.432h4.544v17.68h8.693v3.752H143.237L143.237,1345.066z"/>
		<path fill="#3E396B" d="M159.654,1324.441c0-1.455,0.811-2.185,2.434-2.185c1.622,0,2.433,0.729,2.433,2.185
			c0,0.693-0.203,1.233-0.608,1.619c-0.406,0.387-1.014,0.579-1.825,0.579C160.465,1326.641,159.654,1325.908,159.654,1324.441z
			 M164.316,1345.066h-4.471v-16.39h4.471V1345.066z"/>
		<path fill="#3E396B" d="M173.301,1336.154l1.95-2.492l4.588-4.984h5.042l-6.508,7.109l6.904,9.279h-5.16l-4.72-6.642l-1.92,1.539
			v5.103h-4.471v-22.81h4.471v10.173l-0.235,3.725H173.301L173.301,1336.154z"/>
		<path fill="#3E396B" d="M195.04,1345.359c-2.639,0-4.701-0.729-6.186-2.185c-1.485-1.457-2.228-3.519-2.228-6.186
			c0-2.746,0.687-4.869,2.06-6.37c1.373-1.499,3.271-2.25,5.695-2.25c2.316,0,4.119,0.659,5.409,1.979
			c1.29,1.318,1.935,3.143,1.935,5.468v2.17h-10.569c0.049,1.271,0.425,2.262,1.129,2.976c0.704,0.714,1.69,1.07,2.961,1.07
			c0.987,0,1.92-0.104,2.8-0.309s1.798-0.532,2.756-0.981v3.459c-0.782,0.391-1.618,0.682-2.507,0.873
			C197.405,1345.264,196.32,1345.359,195.04,1345.359z M194.41,1331.551c-0.948,0-1.691,0.301-2.228,0.902
			c-0.538,0.601-0.846,1.453-0.924,2.558h6.274c-0.02-1.104-0.308-1.957-0.865-2.558
			C196.11,1331.852,195.357,1331.551,194.41,1331.551z"/>
		<path fill="#3E396B" d="M216.794,1340.199c0,1.682-0.584,2.961-1.752,3.842c-1.168,0.879-2.915,1.318-5.24,1.318
			c-1.192,0-2.209-0.08-3.049-0.242c-0.84-0.16-1.627-0.397-2.36-0.711v-3.693c0.831,0.391,1.766,0.719,2.807,0.982
			s1.957,0.396,2.749,0.396c1.622,0,2.433-0.47,2.433-1.407c0-0.352-0.107-0.638-0.322-0.856c-0.215-0.221-0.586-0.469-1.114-0.748
			c-0.527-0.278-1.231-0.604-2.111-0.976c-1.261-0.526-2.187-1.016-2.778-1.466c-0.591-0.448-1.021-0.965-1.29-1.546
			c-0.269-0.582-0.403-1.298-0.403-2.147c0-1.455,0.564-2.582,1.693-3.379c1.129-0.796,2.729-1.194,4.801-1.194
			c1.974,0,3.894,0.431,5.761,1.29l-1.349,3.225c-0.821-0.352-1.588-0.64-2.301-0.864c-0.713-0.226-1.441-0.336-2.184-0.336
			c-1.319,0-1.979,0.355-1.979,1.069c0,0.4,0.213,0.747,0.638,1.04c0.425,0.293,1.356,0.729,2.792,1.305
			c1.28,0.52,2.218,1.002,2.814,1.451c0.596,0.45,1.036,0.969,1.319,1.555C216.652,1338.689,216.794,1339.389,216.794,1340.199z"/>
	</g>
	<path fill="#E6E6E6" d="M630,1334.5c0,8.561-6.939,15.5-15.5,15.5h-103c-8.561,0-15.5-6.939-15.5-15.5l0,0
		c0-8.561,6.939-15.5,15.5-15.5h103C623.061,1319,630,1325.939,630,1334.5L630,1334.5z"/>
</g>
</svg>
